<svg width="512" height="512" viewBox="0 0 512 512" fill="none" xmlns="http://www.w3.org/2000/svg">
  <!-- Background: Xbox green rounded rect -->
  <rect width="512" height="512" rx="108" fill="#107c10"/>

  <!-- Cloud shape -->
  <path d="M390 310H150c-38.6 0-70-31.4-70-70 0-33.1 23-60.8 54-68.2C140.4 131.4 178.8 100 224 100c39.2 0 73 22.4 89.6 55.2C320.8 152.8 329 151 338 151c38.6 0 70 31.4 70 70 0 3.4-.2 6.8-.7 10.1C431.4 241.6 448 266.8 448 296c0 7.7-6.3 14-14 14H390z" fill="rgba(255,255,255,0.95)"/>

  <!-- Gamepad icon inside cloud -->
  <!-- Controller body -->
  <rect x="196" y="220" width="120" height="72" rx="36" fill="#107c10"/>

  <!-- Left stick - D-pad style cross -->
  <rect x="228" y="237" width="8" height="24" rx="2" fill="white"/>
  <rect x="222" y="243" width="20" height="8" rx="2" fill="white" opacity="0.95"/>

  <!-- Right side - buttons -->
  <circle cx="292" cy="245" r="5" fill="white"/>
  <circle cx="304" cy="256" r="5" fill="white"/>
  <circle cx="280" cy="256" r="5" fill="white"/>
  <circle cx="292" cy="267" r="5" fill="white"/>

  <!-- Bumpers / grips -->
  <path d="M200 252c-16 0-28 8-28 20s12 20 28 20" fill="#0e6b0e" stroke="none"/>
  <path d="M312 252c16 0 28 8 28 20s-12 20-28 20" fill="#0e6b0e" stroke="none"/>

  <!-- Xbox button (center) -->
  <circle cx="256" cy="240" r="7" fill="white" opacity="0.9"/>

  <!-- Steam-inspired arrows/chevrons below cloud -->
  <g transform="translate(256, 365)" opacity="0.95">
    <path d="M-24-12 L0 12 L24-12" stroke="white" stroke-width="7" stroke-linecap="round" stroke-linejoin="round" fill="none"/>
    <path d="M-16 2 L0 18 L16 2" stroke="white" stroke-width="5" stroke-linecap="round" stroke-linejoin="round" fill="none" opacity="0.6"/>
  </g>
</svg>
