<?xml version="1.0" encoding="UTF-8"?>
<svg version="1.1" xmlns="http://www.w3.org/2000/svg" width="2034" height="1965">
<path d="M0 0 C2.23020887 -0.00239601 4.46041693 -0.00566513 6.6906234 -0.0097166 C12.78053818 -0.01827567 18.87039073 -0.01453568 24.96030635 -0.00866088 C30.91391753 -0.00490313 36.86751814 -0.0106284 42.82112644 -0.01600846 C55.13324085 -0.02679661 67.44533992 -0.02817813 79.75745773 -0.02431011 C92.22298958 -0.02042526 104.68851002 -0.02090242 117.15404129 -0.02661991 C117.94336132 -0.02697874 118.73268134 -0.02733756 119.54592015 -0.02770726 C122.76107088 -0.02918229 125.9762216 -0.03068669 129.19137229 -0.03222873 C161.77970874 -0.04783994 194.36803734 -0.05054526 226.95637685 -0.04807267 C231.45494513 -0.0477342 235.9535134 -0.0474121 240.45208168 -0.04710698 C241.34568873 -0.04704594 242.23929578 -0.04698489 243.15998184 -0.046922 C262.98803398 -0.0456486 282.81608504 -0.04825424 302.64413687 -0.05163305 C307.17540101 -0.0524038 311.70666516 -0.05314854 316.23792931 -0.05389806 C318.05660161 -0.05419976 319.87527391 -0.05450164 321.69394621 -0.05480371 C322.5954495 -0.05495338 323.49695279 -0.05510306 324.42577436 -0.05525728 C326.24931665 -0.05556081 328.07285894 -0.0558655 329.89640123 -0.05617132 C381.62176067 -0.06484139 433.34711917 -0.06949043 485.07247925 -0.06522369 C486.02975896 -0.06514564 486.98703867 -0.06506758 487.97332686 -0.06498716 C498.64731016 -0.06411441 509.32129346 -0.06318514 519.99527675 -0.06223653 C520.95892652 -0.06215102 521.92257628 -0.06206551 522.91542756 -0.06197741 C530.92114675 -0.06126673 530.92114675 -0.06126673 534.60660907 -0.06093518 C596.23283957 -0.05540049 657.8590551 -0.06293967 719.4852829 -0.08170605 C735.01244605 -0.08642854 750.53960922 -0.09110917 766.06677246 -0.09554291 C767.02293386 -0.09581623 767.97909526 -0.09608955 768.96423124 -0.09637116 C798.45008708 -0.10474699 827.93594168 -0.10942254 857.42179871 -0.11025047 C858.34799791 -0.11027684 859.27419711 -0.11030321 860.22846295 -0.11033037 C880.56408797 -0.11087124 900.89971289 -0.1104985 921.23533787 -0.10929066 C928.51236622 -0.10886506 935.78939456 -0.10849993 943.06642291 -0.10816122 C944.87664777 -0.10807591 946.68687263 -0.10798698 948.49709749 -0.1078944 C977.29684144 -0.10644786 1006.09657517 -0.11355741 1034.89631667 -0.12489836 C1064.72356317 -0.13656785 1094.55079151 -0.13709082 1124.37803811 -0.12505493 C1127.58720885 -0.1238032 1130.79637961 -0.12259971 1134.00555038 -0.12143421 C1134.79309293 -0.12114392 1135.58063547 -0.12085362 1136.39204294 -0.12055453 C1148.81560726 -0.11624472 1161.23914559 -0.12193265 1173.66270583 -0.1318744 C1185.90626915 -0.1414585 1198.14979271 -0.14017411 1210.39335377 -0.12766818 C1216.93108671 -0.12127785 1223.4687456 -0.11977205 1230.00647503 -0.13153151 C1326.49113247 -0.29307257 1415.94494963 23.30461995 1493.10540009 83.25447559 C1493.98969696 83.93638966 1494.87399384 84.61830372 1495.78508759 85.32088184 C1498.25744475 87.26229017 1500.68536126 89.24824493 1503.10540009 91.25447559 C1504.10442352 92.06787403 1505.10344696 92.88127247 1506.13274384 93.71931934 C1515.04767318 101.12455592 1523.27475428 109.2087757 1531.48040009 117.37947559 C1532.31704193 118.20835285 1532.31704193 118.20835285 1533.17058563 119.05397511 C1540.2996491 126.13085806 1546.8614838 133.37520877 1553.10540009 141.25447559 C1553.96856749 142.28221116 1554.83697233 143.30561799 1555.71477509 144.32088184 C1571.401545 162.61257158 1584.51304247 183.05338365 1595.99016571 204.20467091 C1596.74826037 205.59805155 1597.5128333 206.98792294 1598.28313446 208.37459278 C1609.37554839 228.35344137 1618.09874137 249.51689635 1625.10540009 271.25447559 C1625.36127899 272.04418751 1625.6171579 272.83389942 1625.88079071 273.647542 C1636.95487053 308.2084835 1643.44482652 343.62349738 1643.35987568 379.92401028 C1643.36227017 382.06951238 1643.36553833 384.21501366 1643.36959228 386.36051327 C1643.37817222 392.23384442 1643.37440254 398.10711125 1643.36853656 403.98044332 C1643.36435308 410.37886174 1643.37177566 416.77726872 1643.37768906 423.17568433 C1643.38679288 434.38260782 1643.3878351 445.58951495 1643.38418579 456.79644108 C1643.38030339 468.81535722 1643.38077424 480.83426153 1643.38649559 492.85317707 C1643.38685442 493.61370805 1643.38721324 494.37423903 1643.38758294 495.1578164 C1643.38905793 498.25560525 1643.39056234 501.35339408 1643.39210441 504.45118289 C1643.40772275 535.86352909 1643.41042017 567.27586716 1643.40794834 598.68821654 C1643.40760988 603.02566916 1643.40728779 607.36312178 1643.40698266 611.7005744 C1643.4068911 612.99294129 1643.4068911 612.99294129 1643.40679768 614.3114166 C1643.40552475 633.42144714 1643.40812906 652.53147656 1643.41150873 671.64150677 C1643.41227947 676.00753569 1643.41302421 680.37356463 1643.41377374 684.73959356 C1643.41407544 686.49191849 1643.41437732 688.24424342 1643.41467938 689.99656836 C1643.41482906 690.86517757 1643.41497874 691.73378678 1643.41513296 692.62871748 C1643.41543649 694.38570621 1643.41574117 696.14269494 1643.416047 697.89968367 C1643.42471809 747.74266712 1643.42936536 797.58564958 1643.42509937 847.42863369 C1643.42502132 848.35124141 1643.42494326 849.27384913 1643.42486284 850.22441467 C1643.42399007 860.51201435 1643.42306081 870.79961403 1643.4221122 881.08721371 C1643.42202669 882.01599758 1643.42194119 882.94478146 1643.42185309 883.9017103 C1643.42114237 891.61822211 1643.42114237 891.61822211 1643.42081086 895.16990737 C1643.41527568 954.57163805 1643.42281632 1013.97335319 1643.44158173 1073.37508106 C1643.44630412 1088.34227273 1643.45098471 1103.3094644 1643.45541859 1118.27665615 C1643.45569191 1119.19830386 1643.45596523 1120.11995157 1643.45624684 1121.06952799 C1643.46462103 1149.48537122 1643.46929807 1177.90121316 1643.47012615 1206.31705761 C1643.47015252 1207.20948168 1643.47017888 1208.10190576 1643.47020605 1209.02137299 C1643.47074689 1228.61423927 1643.47037425 1248.20710546 1643.46916634 1267.79997172 C1643.46874073 1274.81098401 1643.4683756 1281.82199631 1643.4680369 1288.83300861 C1643.46795159 1290.57709576 1643.46786266 1292.32118291 1643.46777008 1294.06527006 C1643.46632278 1321.82740681 1643.473438 1349.58953297 1643.48477404 1377.35166718 C1643.49643638 1406.09909074 1643.49697429 1434.84649546 1643.48493061 1463.59391911 C1643.48367885 1466.68506864 1643.48247536 1469.77621818 1643.48130989 1472.86736774 C1643.4810196 1473.62596054 1643.4807293 1474.38455333 1643.48043021 1475.16613379 C1643.4761156 1487.14680463 1643.48181678 1499.12744856 1643.49175008 1511.10811517 C1643.50131967 1522.90702071 1643.49981897 1534.70588176 1643.48754386 1546.50478508 C1643.48129017 1552.80854628 1643.47967973 1559.11221053 1643.49140719 1565.41596611 C1643.50200165 1571.16377685 1643.49850133 1576.91140917 1643.48430267 1582.65921057 C1643.48160008 1584.7129216 1643.48378881 1586.76664728 1643.49180981 1588.82034443 C1643.56403447 1608.68723784 1641.23406318 1628.15216017 1637.35540009 1647.62947559 C1637.22845764 1648.27191212 1637.1015152 1648.91434864 1636.97072601 1649.57625294 C1630.41297087 1682.58689058 1619.83905364 1714.0141787 1605.10540009 1744.25447559 C1604.42258118 1745.68651598 1603.7402463 1747.11878732 1603.05852509 1748.55135059 C1595.58976347 1764.04487527 1587.02365587 1779.19710519 1577.10540009 1793.25447559 C1576.72706024 1793.79588184 1576.3487204 1794.33728809 1575.95891571 1794.89510059 C1566.36714063 1808.61087559 1556.1845299 1821.70602977 1545.10540009 1834.25447559 C1544.44217743 1835.00672413 1543.77895477 1835.75897266 1543.09563446 1836.53401661 C1537.49689808 1842.82394738 1531.68190456 1848.86109502 1525.73040009 1854.81697559 C1524.86157196 1855.69804981 1523.99274384 1856.57912403 1523.09758759 1857.48689747 C1517.08205492 1863.51577821 1510.75978943 1868.9468556 1504.10540009 1874.25447559 C1503.04337191 1875.14206794 1501.98500828 1876.03410359 1500.93352509 1876.93416309 C1484.27872704 1891.11597598 1466.05408998 1903.35887107 1447.10540009 1914.25447559 C1446.33437958 1914.70016895 1445.56335907 1915.14586231 1444.7689743 1915.60506153 C1421.99210039 1928.67295099 1398.13691841 1939.31379509 1373.10540009 1947.25447559 C1372.27314911 1947.52308399 1371.44089813 1947.79169239 1370.58342743 1948.06844044 C1352.77701657 1953.78299043 1334.5823527 1958.25017712 1316.16790009 1961.50447559 C1315.3186496 1961.65545704 1314.46939911 1961.80643848 1313.59441376 1961.96199512 C1297.12810203 1964.72742512 1280.9970081 1965.54580917 1264.32703209 1965.50895119 C1262.06044466 1965.51134522 1259.79385801 1965.51461309 1257.52727294 1965.51866779 C1251.31774488 1965.52725407 1245.10827759 1965.52347537 1238.89874866 1965.51761206 C1232.83455248 1965.51386286 1226.77036929 1965.51957376 1220.70617613 1965.52495965 C1208.16070697 1965.53576289 1195.61525285 1965.53712487 1183.06978035 1965.5332613 C1170.36391502 1965.52937965 1157.65806088 1965.52984858 1144.95219612 1965.5355711 C1144.14835934 1965.53592992 1143.34452256 1965.53628875 1142.5163271 1965.53665845 C1139.24217539 1965.53813343 1135.96802369 1965.53963784 1132.69387201 1965.54117992 C1099.48875927 1965.55680045 1066.28365421 1965.55949544 1033.07853845 1965.55702385 C1028.49313754 1965.55668539 1023.90773663 1965.5563633 1019.32233572 1965.55605817 C1017.95610256 1965.5559666 1017.95610256 1965.5559666 1016.56226873 1965.55587319 C996.3622828 1965.55460039 976.16229794 1965.55720432 955.96231233 1965.56058424 C951.34762037 1965.56135498 946.73292842 1965.56209972 942.11823646 1965.56284925 C940.26611799 1965.56315094 938.41399953 1965.56345282 936.56188106 1965.56375489 C935.64380708 1965.56390457 934.7257331 1965.56405425 933.77983869 1965.56420847 C931.92279944 1965.564512 930.06576018 1965.56481668 928.20872093 1965.56512251 C875.52564405 1965.57379391 822.8425681 1965.57844064 770.15949059 1965.57417488 C769.18425796 1965.57409682 768.20902534 1965.57401877 767.20424021 1965.57393835 C756.32977545 1965.57306557 745.45531069 1965.57213631 734.58084594 1965.57118771 C733.59907362 1965.5711022 732.61730131 1965.57101669 731.60577832 1965.57092859 C723.44889445 1965.57021787 723.44889445 1965.57021787 719.6947099 1965.56988637 C656.9028899 1965.56435108 594.11108461 1965.57189199 531.31926727 1965.59065723 C515.49783519 1965.5953796 499.6764031 1965.60006018 483.85497093 1965.60449409 C482.88072975 1965.60476742 481.90648856 1965.60504074 480.90272491 1965.60532234 C450.86691579 1965.61369611 420.8311079 1965.61837354 390.79529762 1965.61920166 C389.85204226 1965.61922803 388.9087869 1965.61925439 387.93694804 1965.61928156 C367.22842366 1965.61982239 346.51989939 1965.61944978 325.81137504 1965.61824184 C318.40119937 1965.61781623 310.99102369 1965.61745111 303.580848 1965.6171124 C301.73745274 1965.6170271 299.89405747 1965.61693817 298.0506622 1965.61684558 C268.70361922 1965.61539808 239.35658625 1965.62251482 210.00954568 1965.63384954 C179.622325 1965.64551002 149.23512215 1965.64605184 118.84790139 1965.63400612 C115.58093775 1965.63275435 112.31397409 1965.63155086 109.04701042 1965.6303854 C108.24526772 1965.6300951 107.44352501 1965.62980481 106.61748707 1965.62950572 C93.95149201 1965.62518984 81.28552239 1965.63089451 68.61953133 1965.64082559 C56.14797463 1965.65039136 43.67645699 1965.64914955 31.20490252 1965.63661937 C24.5408119 1965.63021283 17.87679304 1965.62876366 11.21270214 1965.6404827 C5.13792964 1965.65106684 -0.93667391 1965.64758944 -7.01143752 1965.63337817 C-9.18350894 1965.63067263 -11.35559418 1965.63287361 -13.5276525 1965.64088532 C-33.74864262 1965.71031895 -53.50221165 1963.43768776 -73.33209991 1959.50447559 C-73.9728244 1959.3788625 -74.61354889 1959.2532494 -75.27368927 1959.12382984 C-88.35996093 1956.54371759 -101.15178306 1953.18159004 -113.89459991 1949.25447559 C-115.22612091 1948.8510796 -115.22612091 1948.8510796 -116.58454132 1948.43953419 C-168.04986924 1932.70252069 -216.75990577 1905.05659449 -256.89459991 1869.25447559 C-258.29838898 1868.01697559 -258.29838898 1868.01697559 -259.73053741 1866.75447559 C-264.61951901 1862.40871417 -269.31876083 1857.92676094 -273.89459991 1853.25447559 C-276.54846111 1850.58714302 -279.21682163 1847.93645751 -281.91022491 1845.30916309 C-288.72912772 1838.6264707 -294.97421315 1831.75950119 -300.89459991 1824.25447559 C-302.3513808 1822.50318305 -303.80974495 1820.75320645 -305.26959991 1819.00447559 C-360.51064995 1751.37021607 -391.35782468 1663.7596276 -391.14907551 1576.56331539 C-391.1514716 1574.45224912 -391.15474078 1572.34118369 -391.15879211 1570.23011994 C-391.16735002 1564.46633906 -391.16361168 1558.70262394 -391.15773638 1552.93884217 C-391.15354481 1546.65385994 -391.16098004 1540.36888924 -391.16688889 1534.08390987 C-391.17563326 1523.08059495 -391.17703808 1512.07730212 -391.17338562 1501.0739851 C-391.16950062 1489.27563086 -391.16997816 1477.47728868 -391.17569542 1465.67893505 C-391.17605425 1464.93183012 -391.17641307 1464.18472518 -391.17678277 1463.4149807 C-391.1782578 1460.37177496 -391.17976221 1457.32856923 -391.18130424 1454.28536352 C-391.19691532 1423.43999284 -391.19962076 1392.59463043 -391.19714817 1361.7492565 C-391.1968097 1357.49124663 -391.19648761 1353.23323675 -391.19618249 1348.97522688 C-391.19612145 1348.1293988 -391.1960604 1347.28357072 -391.19599751 1346.41211149 C-391.19472404 1327.64318067 -391.19732988 1308.87425099 -391.20070856 1290.10532052 C-391.20147931 1285.8159096 -391.20222405 1281.52649867 -391.20297357 1277.23708775 C-391.20327527 1275.51547707 -391.20357715 1273.79386639 -391.20387921 1272.07225571 C-391.20402889 1271.2188634 -391.20417857 1270.36547108 -391.20433279 1269.4862184 C-391.20463632 1267.75999 -391.204941 1266.0337616 -391.20524683 1264.30753321 C-391.21391698 1215.34195154 -391.21856592 1166.37637088 -391.2142992 1117.41078854 C-391.21422115 1116.50458108 -391.21414309 1115.59837363 -391.21406267 1114.66470535 C-391.21318992 1104.56024159 -391.21226065 1094.45577783 -391.21131203 1084.35131408 C-391.21122652 1083.43908461 -391.21114101 1082.52685513 -391.21105291 1081.58698234 C-391.21034225 1074.00857983 -391.21034225 1074.00857983 -391.21001069 1070.51964417 C-391.2044766 1012.18808435 -391.21201342 953.85654036 -391.23078156 895.52498341 C-391.23550409 880.82918838 -391.24018474 866.13339334 -391.24461842 851.43759823 C-391.24489174 850.53261925 -391.24516506 849.62764028 -391.24544666 848.69523769 C-391.25382342 820.7845936 -391.25849814 792.87395082 -391.25932598 764.96330547 C-391.25935235 764.08649211 -391.25937871 763.20967875 -391.25940588 762.30629528 C-391.25994677 743.05427825 -391.25957397 723.80226132 -391.25836616 704.55024432 C-391.25794057 697.66081841 -391.25757544 690.77139251 -391.25723672 683.8819666 C-391.25715142 682.16817371 -391.25706249 680.45438082 -391.2569699 678.74058793 C-391.25552374 651.48205501 -391.26263054 624.22353288 -391.27397387 596.96500255 C-391.28564735 568.73018458 -391.28616202 540.49538581 -391.27413044 512.26056774 C-391.27287873 509.22172076 -391.27167523 506.18287377 -391.27050972 503.14402676 C-391.27021943 502.39828843 -391.26992913 501.6525501 -391.26963004 500.88421364 C-391.26532281 489.12738979 -391.27100361 477.37059344 -391.28094991 465.61377391 C-391.29054187 454.02290756 -391.2889905 442.4320919 -391.27674369 430.84122686 C-391.27050888 424.65380968 -391.26883023 418.46649105 -391.28060702 412.27907969 C-391.46730279 306.88930935 -361.29786864 202.97200405 -286.32819366 125.60603809 C-284.85119237 124.14153258 -283.36742104 122.68380375 -281.87506866 121.23494434 C-279.91645136 119.27632704 -278.12255614 117.24181159 -276.33209991 115.12947559 C-273.51991975 111.86247814 -270.52556861 109.06721834 -267.23834991 106.28572559 C-264.90479285 104.26330947 -262.65532707 102.16485788 -260.40924835 100.04622364 C-253.24527558 93.3099985 -245.74515158 87.17046487 -237.89459991 81.25447559 C-237.28857941 80.79685841 -236.6825589 80.33924122 -236.05817413 79.86775684 C-184.85750656 41.37628367 -125.89054678 15.76492762 -62.76959991 5.00447559 C-62.041763 4.87905384 -61.31392609 4.75363209 -60.56403351 4.62440968 C-40.42877263 1.19505898 -20.40696624 -0.0462284 0 0 Z " fill="#107C10" transform="translate(390.8945999145508,-0.25447559356689453)"/>
<path d="M0 0 C73.92 0 147.84 0 224 0 C224 27.72 224 55.44 224 84 C203.87 84 183.74 84 163 84 C172.47817632 99.01402169 172.47817632 99.01402169 182 114 C186.83810779 121.59433071 191.65743174 129.20015246 196.4609375 136.81640625 C200.29202359 142.88736013 204.14321169 148.94534761 208 155 C212.34725302 161.82461773 216.68342859 168.65593397 221 175.5 C227.63575161 186.01968952 234.31754869 196.50993603 241 207 C248.17310101 218.26028234 255.33919004 229.5245995 262.46142578 240.81713867 C266.29230722 246.88787553 270.1434692 252.94553106 274 259 C278.46719911 266.01523446 282.92976538 273.0333219 287.375 280.0625 C287.86532715 280.83706543 288.3556543 281.61163086 288.86083984 282.40966797 C291.08695734 285.93466939 293.2947606 289.46820297 295.453125 293.03515625 C295.8238916 293.64673584 296.1946582 294.25831543 296.57666016 294.88842773 C297.54838041 296.49807985 298.51278879 298.11213987 299.4765625 299.7265625 C300.79950138 302.10561536 300.79950138 302.10561536 303 303 C303.26248535 302.28859863 303.5249707 301.57719727 303.79541016 300.84423828 C305.06031485 297.85758655 306.56612278 295.24906934 308.2734375 292.4921875 C308.92707275 291.43306152 309.58070801 290.37393555 310.25415039 289.28271484 C310.9609516 288.14671739 311.66790504 287.01081463 312.375 285.875 C313.10497905 284.69627658 313.83471292 283.51740129 314.56420898 282.33837891 C319.64645383 274.13445795 324.78466525 265.96623661 329.953125 257.81640625 C333.42988014 252.32986676 336.87195309 246.82179452 340.3125 241.3125 C340.94293213 240.30300293 341.57336426 239.29350586 342.22290039 238.25341797 C343.5076015 236.19587228 344.79218745 234.13825468 346.07666016 232.08056641 C349.21589223 227.05253513 352.35807151 222.02634659 355.5 217 C356.75001464 215.00000915 358.00001462 213.00000914 359.25 211 C371.75 191 384.25 171 396.75 151 C397.36883057 150.00983887 397.98766113 149.01967773 398.62524414 147.99951172 C399.87431328 146.00106616 401.12349934 144.00269366 402.37280273 142.00439453 C405.51301136 136.98120665 408.65112918 131.9567348 411.78515625 126.9296875 C432.18100339 94.22849491 432.18100339 94.22849491 439 84 C418.54 84 398.08 84 377 84 C377 56.28 377 28.56 377 0 C450.92 0 524.84 0 601 0 C601 27.72 601 55.44 601 84 C599.33376422 85.66623578 597.31241088 85.16740691 595.02124023 85.20532227 C593.96021591 85.22526749 592.89919159 85.24521271 591.80601501 85.26576233 C590.07479149 85.29083107 590.07479149 85.29083107 588.30859375 85.31640625 C586.5461306 85.3475779 586.5461306 85.3475779 584.74806213 85.37937927 C580.97793676 85.44500124 577.20773918 85.5038183 573.4375 85.5625 C570.88866427 85.6056732 568.33983597 85.64928708 565.79101562 85.69335938 C559.52742108 85.80069545 553.26375399 85.9024379 547 86 C545.515 88.97 545.515 88.97 544 92 C543.34 92 542.68 92 542 92 C541.87625 92.763125 541.7525 93.52625 541.625 94.3125 C541 97 541 97 539 100 C538.34 100 537.68 100 537 100 C536.87625 100.763125 536.7525 101.52625 536.625 102.3125 C536 105 536 105 534 108 C533.34 108 532.68 108 532 108 C531.87625 108.763125 531.7525 109.52625 531.625 110.3125 C531 113 531 113 529 116 C528.34 116 527.68 116 527 116 C526.88857666 116.73452393 526.77715332 117.46904785 526.66235352 118.22583008 C525.97048031 121.12363887 525.02968985 122.90891956 523.40234375 125.38671875 C522.85626465 126.22936279 522.31018555 127.07200684 521.74755859 127.94018555 C520.85157959 129.3001062 520.85157959 129.3001062 519.9375 130.6875 C518.65569324 132.6654633 517.37582437 134.64468346 516.09765625 136.625 C515.42621582 137.66398438 514.75477539 138.70296875 514.06298828 139.7734375 C510.59358998 145.19965856 507.23627492 150.69388598 503.875 156.1875 C498.80641905 164.45535089 493.69821924 172.69387078 488.50512695 180.8840332 C484.50100983 187.19990284 480.52655948 193.53391553 476.5625 199.875 C475.93633789 200.8748291 475.31017578 201.8746582 474.66503906 202.90478516 C471.48889287 207.98383153 468.3371887 213.07584163 465.2265625 218.1953125 C464.63029053 219.17258301 464.03401855 220.14985352 463.41967773 221.15673828 C462.28541799 223.0185549 461.15708526 224.88399844 460.03540039 226.75341797 C459.53258545 227.57729004 459.02977051 228.40116211 458.51171875 229.25 C458.07303467 229.97703125 457.63435059 230.7040625 457.18237305 231.453125 C456.79218994 231.96359375 456.40200684 232.4740625 456 233 C455.34 233 454.68 233 454 233 C453.87625 233.763125 453.7525 234.52625 453.625 235.3125 C453 238 453 238 451 241 C450.34 241 449.68 241 449 241 C448.87625 241.763125 448.7525 242.52625 448.625 243.3125 C448 246 448 246 446 249 C445.34 249 444.68 249 444 249 C443.87625 249.763125 443.7525 250.52625 443.625 251.3125 C443 254 443 254 441 257 C440.34 257 439.68 257 439 257 C438.89075195 257.73089844 438.78150391 258.46179688 438.66894531 259.21484375 C437.9582401 262.17386751 436.95668636 264.02611083 435.296875 266.5625 C434.73556885 267.43052246 434.1742627 268.29854492 433.59594727 269.19287109 C432.98678467 270.11922363 432.37762207 271.04557617 431.75 272 C430.4610826 273.99143915 429.17334894 275.98364487 427.88671875 277.9765625 C427.23364746 278.98493164 426.58057617 279.99330078 425.90771484 281.03222656 C423.07055634 285.44590698 420.31245455 289.90664501 417.5625 294.375 C412.94008936 301.86895093 408.29424249 309.34762933 403.625 316.8125 C402.68756958 318.31139771 402.68756958 318.31139771 401.73120117 319.84057617 C399.18269954 323.91458243 396.63332212 327.98804035 394.08398438 332.06152344 C392.8110249 334.0957881 391.53831909 336.13021151 390.26586914 338.16479492 C389.0159396 340.16290694 387.76514075 342.16047545 386.51342773 344.1574707 C383.39097872 349.14537543 380.29397809 354.14666331 377.23828125 359.17578125 C376.34133545 360.64591675 376.34133545 360.64591675 375.42626953 362.14575195 C374.28958928 364.01165041 373.15879427 365.88115019 372.03466797 367.75463867 C371.53209473 368.57810791 371.02952148 369.40157715 370.51171875 370.25 C370.07303467 370.97703125 369.63435059 371.7040625 369.18237305 372.453125 C368.79218994 372.96359375 368.40200684 373.4740625 368 374 C367.34 374 366.68 374 366 374 C365.87625 374.763125 365.7525 375.52625 365.625 376.3125 C365 379 365 379 363 382 C362.34 382 361.68 382 361 382 C360.87625 382.7425 360.7525 383.485 360.625 384.25 C360 387 360 387 358.6875 388.69140625 C357.6450371 391.24842156 357.6450371 391.24842156 359.6484375 394.44921875 C360.54067966 395.87252891 361.45118616 397.28447616 362.375 398.6875 C362.86814697 399.46424072 363.36129395 400.24098145 363.86938477 401.04125977 C364.96670672 402.76456738 366.07173022 404.48298746 367.18310547 406.19726562 C369.09623898 409.14845788 370.98920941 412.11187643 372.87890625 415.078125 C375.60304521 419.3499951 378.33522125 423.61654833 381.07421875 427.87890625 C384.48903858 433.19663464 387.87929634 438.52921769 391.25 443.875 C391.73090088 444.6376416 392.21180176 445.4002832 392.70727539 446.18603516 C393.66282914 447.70216533 394.61815397 449.2184398 395.57324219 450.73486328 C398.00495066 454.59547095 400.43949695 458.45428527 402.875 462.3125 C403.61024902 463.47724854 403.61024902 463.47724854 404.36035156 464.66552734 C408.22664212 470.7856924 412.11109528 476.89418545 416 483 C422.84871863 493.7529006 429.65846334 504.53005331 436.45898438 515.31347656 C442.28744612 524.55419528 448.13084011 533.7850656 454 543 C460.84871863 553.7529006 467.65846334 564.53005331 474.45898438 575.31347656 C480.28744612 584.55419528 486.13084011 593.7850656 492 603 C498.84871863 613.7529006 505.65846334 624.53005331 512.45898438 635.31347656 C518.28744643 644.55419578 524.13094198 653.78500036 530 663 C534.46716052 670.01526033 538.92956741 677.03344615 543.375 684.0625 C543.82617188 684.77470703 544.27734375 685.48691406 544.7421875 686.22070312 C545.185625 686.92259766 545.6290625 687.62449219 546.0859375 688.34765625 C546.80958496 689.41584595 546.80958496 689.41584595 547.54785156 690.50561523 C549 693 549 693 550.16308594 696.40258789 C551.82219705 700.43709412 553.27951654 703.63501578 557 706 C565.81387111 708.38388512 575.4839032 707.52965018 584.5 707.3125 C593.245 707.209375 601.99 707.10625 611 707 C611 735.05 611 763.1 611 792 C581.94168105 792.02254384 552.88336914 792.04097731 523.82504368 792.05181217 C521.14304669 792.05283207 518.46104971 792.05387339 515.77905273 792.05493164 C515.11240795 792.05519395 514.44576317 792.05545626 513.75891703 792.05572652 C502.95079081 792.06008323 492.14266988 792.06797078 481.33454681 792.0771528 C470.25251093 792.08648931 459.17047721 792.0919807 448.0884375 792.09408849 C441.86042666 792.09539602 435.63242785 792.09848449 429.40442085 792.10573006 C423.54981925 792.11248642 417.6952347 792.11461775 411.84062958 792.11310768 C409.68505956 792.11338418 407.52948901 792.11539157 405.37392235 792.11920547 C402.44465915 792.12413673 399.51546143 792.1230004 396.5861969 792.12025452 C395.72142827 792.12316736 394.85665964 792.1260802 393.9656859 792.12908131 C388.11412121 792.11412121 388.11412121 792.11412121 387 791 C386.90490441 788.38311559 386.87444 785.792711 386.88647461 783.17553711 C386.88632858 782.35609116 386.88618256 781.5366452 386.8860321 780.69236755 C386.88673148 777.97066647 386.89452499 775.24903295 386.90234375 772.52734375 C386.90420784 770.64547259 386.90563179 768.76360094 386.90663147 766.88172913 C386.91045733 761.91851471 386.92028819 756.95532936 386.93133545 751.99212646 C386.94334236 746.04252473 386.94795148 740.09291329 386.95378876 734.14330292 C386.96349992 725.09551503 386.98265599 716.04779099 387 707 C407.13 707 427.26 707 448 707 C443.38 699.74 438.76 692.48 434 685 C428 675.5 428 675.5 425.0625 670.84375 C421.72162505 665.55403133 418.36127935 660.27676823 415 655 C410.1622837 647.40541918 405.34256929 639.79984917 400.5390625 632.18359375 C396.70797641 626.11263987 392.85678831 620.05465239 389 614 C384.1622837 606.40541918 379.34256929 598.79984917 374.5390625 591.18359375 C370.70797641 585.11263987 366.85678831 579.05465239 363 573 C358.1622837 565.40541918 353.34256929 557.79984917 348.5390625 550.18359375 C344.70797631 544.11263971 340.85675504 538.05467372 337 532 C332.61276051 525.11185395 328.23437759 518.21831679 323.875 511.3125 C323.39208496 510.54760254 322.90916992 509.78270508 322.41162109 508.99462891 C319.87056163 504.96823639 317.33261635 500.93989999 314.796875 496.91015625 C314.26594238 496.06735107 313.73500977 495.2245459 313.18798828 494.35620117 C312.18535538 492.76454884 311.18364517 491.17231469 310.18310547 489.5793457 C307.25571702 484.93397499 304.23760989 480.3688194 301.11474609 475.85205078 C300 474 300 474 300 472 C295.80178095 475.64634049 293.3804756 480.12673735 290.625 484.875 C286.27274114 492.2520754 281.80876624 499.53834957 277.1875 506.75 C272.26981949 514.43221809 267.39120833 522.13650009 262.5625 529.875 C261.62893677 531.37111816 261.62893677 531.37111816 260.67651367 532.89746094 C259.41448094 534.92075337 258.15268121 536.94419116 256.89111328 538.96777344 C253.76456576 543.98090541 250.63199839 548.99027243 247.5 554 C246.24997074 555.99998171 244.99997074 557.99998172 243.75 560 C191.24999999 644.00000001 191.24999999 644.00000001 189.37451172 647.00073242 C188.12608079 648.99825443 186.87770827 650.99581295 185.62939453 652.9934082 C182.48086882 658.03162434 179.33129107 663.06917728 176.1796875 668.10546875 C175.54224609 669.12447266 174.90480469 670.14347656 174.24804688 671.19335938 C173.07005885 673.07642053 171.89172412 674.95926489 170.71289062 676.84179688 C164.43917494 686.87248912 158.22759131 696.9400448 152 707 C172.13 707 192.26 707 213 707 C213 735.05 213 763.1 213 792 C139.41 792 65.82 792 -10 792 C-10 763.95 -10 735.9 -10 707 C-1.70875 707.28875 6.5825 707.5775 15.125 707.875 C19.9917623 707.87930319 24.71553476 707.8366936 29.5546875 707.58203125 C30.64563721 707.56773071 31.73658691 707.55343018 32.8605957 707.53869629 C40.57286739 707.11946898 44.25803126 704.85921271 49.42529297 699.16184998 C52.03211239 695.44835741 53.34683595 691.57225455 54.75878906 687.29101562 C57.01409737 681.3111659 60.66638574 676.15519349 64.125 670.8125 C65.48610261 668.60633049 66.84168976 666.39674752 68.19140625 664.18359375 C71.91263078 658.12791918 75.69282669 652.1117151 79.49926758 646.109375 C83.46210794 639.85933358 87.39251843 633.58950581 91.3125 627.3125 C92.25814819 625.79825439 92.25814819 625.79825439 93.22290039 624.25341797 C94.5076015 622.19587228 95.79218745 620.13825468 97.07666016 618.08056641 C100.21589223 613.05253513 103.35807151 608.02634659 106.5 603 C107.75001464 601.00000915 109.00001462 599.00000914 110.25 597 C117.75 585 117.75 585 119.62548828 581.99926758 C120.87391921 580.00174557 122.12229173 578.00418705 123.37060547 576.0065918 C126.51913118 570.96837566 129.66870893 565.93082272 132.8203125 560.89453125 C138.73403496 551.44226993 144.63776511 541.98429715 150.5 532.5 C156.99427777 521.99314361 163.54042507 511.51905273 170.09277344 501.04833984 C173.23041563 496.03341404 176.36507133 491.01662235 179.5 486 C180.74998537 483.99999085 181.99998537 481.99999086 183.25 480 C183.86875 479.01 184.4875 478.02 185.125 477 C220.92578125 419.71875 220.92578125 419.71875 222.8828125 416.58911133 C224.15428141 414.55369936 225.42386009 412.5171052 226.69140625 410.47924805 C229.48395943 405.99393326 232.29423537 401.52677905 235.19921875 397.11328125 C235.67705811 396.37851562 236.15489746 395.64375 236.6472168 394.88671875 C237.51785664 393.55176908 238.40000025 392.22421559 239.29614258 390.90625 C240.91366031 388.4095638 241.99177057 386.57148852 242.03515625 383.55859375 C240.54228251 379.86866055 238.55887716 376.61088419 236.4375 373.25 C235.71808228 372.09165649 235.71808228 372.09165649 234.98413086 370.90991211 C229.37882928 361.92399831 223.64244542 353.01961203 217.91796875 344.109375 C214.54619771 338.85877775 211.20102678 333.5921666 207.875 328.3125 C203.60140875 321.5300704 199.30722475 314.76112295 195 308 C188.15116264 297.24717548 181.34153627 286.46994607 174.54101562 275.68652344 C168.12052485 265.50717391 161.67724978 255.34275863 155.21142578 245.19213867 C150.97106673 238.53280243 146.75057176 231.86120069 142.5390625 225.18359375 C138.70797641 219.11263987 134.85678831 213.05465239 131 207 C126.1622837 199.40541918 121.34256929 191.79984917 116.5390625 184.18359375 C112.70797631 178.11263971 108.85675504 172.05467372 105 166 C98.15122199 155.24713745 91.34153647 144.46994638 84.54101562 133.68652344 C78.58302892 124.24044972 72.613425 114.80181208 66.625 105.375 C66.05410645 104.47483154 65.48321289 103.57466309 64.89501953 102.6472168 C64.34442871 101.78136963 63.79383789 100.91552246 63.2265625 100.0234375 C62.50847412 98.89301025 62.50847412 98.89301025 61.77587891 97.73974609 C61.18983887 96.83562988 60.60379883 95.93151367 60 95 C59.63665558 94.24826004 59.27331116 93.49652008 58.8989563 92.72200012 C56.91461335 89.02882733 55.50559712 86.4733435 51.38009644 85.17633057 C48.09115476 84.86048203 44.90468398 84.83119923 41.6015625 84.90234375 C40.54606201 84.89174927 39.49056152 84.88115479 38.40307617 84.87023926 C34.47707521 84.84388553 30.55086242 84.89528273 26.625 84.9375 C13.445625 84.9684375 13.445625 84.9684375 0 85 C0 56.95 0 28.9 0 0 Z " fill="#FDFEFD" transform="translate(84,606)"/>
<path d="M0 0 C1.08399712 -0.01571004 2.16799423 -0.03142007 3.28483975 -0.04760617 C6.92444964 -0.09268311 10.56279715 -0.09472301 14.20266724 -0.09672546 C16.80959718 -0.11958598 19.41650686 -0.14486776 22.02339172 -0.1723938 C29.11271414 -0.2409127 36.20176698 -0.26470429 43.29137564 -0.27987313 C47.72302975 -0.2896531 52.15460595 -0.3092266 56.58621597 -0.3308773 C68.86885749 -0.38958435 81.15142661 -0.43878718 93.43421745 -0.4475069 C94.22012062 -0.44806961 95.00602379 -0.44863232 95.8157422 -0.44921209 C97.40882786 -0.45031081 99.00191352 -0.4514019 100.59499918 -0.45248542 C101.38575913 -0.45303385 102.17651908 -0.45358229 102.99124146 -0.45414734 C103.78297344 -0.45468899 104.57470542 -0.45523063 105.39042927 -0.45578869 C118.20054779 -0.46639869 131.00914857 -0.54736126 143.81874131 -0.65964101 C156.98708741 -0.77413549 170.15468247 -0.83198116 183.32353699 -0.83288544 C190.71074179 -0.83463443 198.09613888 -0.85978738 205.48287582 -0.94687843 C212.43935014 -1.02852105 219.39220538 -1.0319356 226.34897804 -0.98391151 C228.8938267 -0.97848233 231.43888329 -0.99841467 233.9832859 -1.04636765 C255.17298007 -1.42117403 255.17298007 -1.42117403 263.30589783 6.1035803 C266.2243553 9.18536893 268.8202132 12.42968947 271.36331177 15.82246399 C272.62217967 17.27045405 273.88855757 18.71214979 275.17581177 20.13496399 C275.67725708 20.7292218 276.17870239 21.32347961 276.69534302 21.93574524 C279.61957123 25.24347879 282.81755995 28.28328749 285.95706177 31.38496399 C288.6129093 34.07530305 291.06466609 36.88819923 293.51956177 39.75996399 C295.71127489 42.21171088 298.02398281 44.51131972 300.36331177 46.82246399 C303.29449368 49.71838356 306.12734351 52.6248897 308.80081177 55.75996399 C311.66503512 59.11171472 314.72664893 62.22803155 317.86331177 65.32246399 C321.60361515 69.01240987 325.14570526 72.79750097 328.55471802 76.79512024 C331.53859181 80.13989453 334.76950909 83.23581556 337.95706177 86.38496399 C340.6129093 89.07530305 343.06466609 91.88819923 345.51956177 94.75996399 C348.50825367 98.10324645 351.73649578 101.2032921 354.92581177 104.35371399 C357.74443716 107.2084756 360.38663359 110.17674536 362.98831177 113.22871399 C364.06180863 114.47299444 365.20128136 115.66043358 366.36331177 116.82246399 C366.60940742 119.14566994 366.60940742 119.14566994 366.6038208 122.11216736 C366.60794479 123.79491508 366.60794479 123.79491508 366.6121521 125.51165771 C366.60496155 126.74811539 366.597771 127.98457306 366.59036255 129.25849915 C366.5906546 130.55601608 366.59094666 131.85353302 366.59124756 133.19036865 C366.59182277 136.75424118 366.58004133 140.31797982 366.56609964 143.88182116 C366.55362028 147.60408384 366.552424 151.32634939 366.55004883 155.04862976 C366.54382582 162.09991193 366.52740395 169.15113229 366.50734985 176.20238721 C366.48084256 185.72889398 366.47002483 195.25541758 366.45834541 204.7819519 C366.43952389 219.79550226 366.39968374 234.80892215 366.36331177 249.82246399 C338.31331177 249.82246399 310.26331177 249.82246399 281.36331177 249.82246399 C281.58567505 240.40779602 281.58567505 240.40779602 281.81253052 230.80293274 C281.86411173 226.78746874 281.90995341 222.77352109 281.93557739 218.75801086 C281.97664733 212.40554574 282.03701371 206.05802935 282.22390747 199.70796204 C284.18858882 173.26879769 284.18858882 173.26879769 273.78929138 150.2661438 C270.58314784 147.38575019 267.26238328 144.87810681 263.67279053 142.49717712 C260.59509932 140.26539653 258.34057879 137.6279385 255.92927551 134.71105957 C253.66982293 131.98609728 251.19505109 129.56008106 248.67581177 127.07246399 C248.16961304 126.57005188 247.66341431 126.06763977 247.14187622 125.55000305 C245.55149327 123.97163687 243.95786732 122.3966139 242.36331177 120.82246399 C230.64999124 109.2590397 230.64999124 109.2590397 226.61331177 104.57246399 C226.10623467 103.99778853 225.59915758 103.42311308 225.07671452 102.83102322 C223.36331177 100.82246399 223.36331177 100.82246399 221.89556789 98.76105595 C218.42113665 94.44123555 215.4342145 92.4131894 209.84241593 91.74410713 C205.99828138 91.45374836 202.16030082 91.34611353 198.30691528 91.2636261 C196.56922059 91.19867831 194.8316298 91.1308985 193.09414673 91.06051636 C187.39456447 90.84625855 181.6944844 90.71803421 175.99221802 90.59980774 C174.01196688 90.55554799 172.03171621 90.51126749 170.05146599 90.46696663 C161.7846953 90.28907557 153.51803076 90.13508364 145.24984837 90.04111385 C134.55961432 89.91863369 123.88569839 89.71863414 113.20291138 89.28999329 C60.75925362 84.86535958 60.75925362 84.86535958 14.53824902 104.55894184 C6.10530829 112.6396418 -0.77731012 121.75192317 -7.07286263 131.54857063 C-9.61697577 135.24785906 -12.58612268 138.53711522 -15.63668823 141.82246399 C-16.36652215 142.61399541 -16.36652215 142.61399541 -17.1111002 143.42151737 C-18.23891525 144.60231314 -19.43158742 145.72065753 -20.63668823 146.82246399 C-21.29668823 146.82246399 -21.95668823 146.82246399 -22.63668823 146.82246399 C-22.83240813 194.15550516 -23.00764114 241.48857132 -23.07051086 288.82199097 C-23.0714481 289.52310303 -23.07238533 290.22421509 -23.07335096 290.94657298 C-23.09359552 306.1854807 -23.11005448 321.42439032 -23.12261656 336.66330626 C-23.12880049 344.13701382 -23.13582049 351.61072049 -23.14328003 359.08442688 C-23.14400809 359.82813048 -23.14473615 360.57183408 -23.14548628 361.33807415 C-23.16945514 385.42192046 -23.24857852 409.50519972 -23.35645964 433.58880409 C-23.46707616 458.34835355 -23.52173895 483.10741627 -23.50650696 507.86722325 C-23.50437904 511.36839183 -23.5028874 514.86956041 -23.50178337 518.37072945 C-23.50154641 519.05977535 -23.50130945 519.74882124 -23.50106531 520.45874732 C-23.49889206 531.52829478 -23.55529065 542.59679758 -23.63387547 553.66603392 C-23.71171757 564.8081624 -23.72581462 575.94928479 -23.68004186 587.09166639 C-23.65710226 593.12423851 -23.66144037 599.15347027 -23.74055672 605.18564034 C-25.5022235 631.53783452 -25.5022235 631.53783452 -15.75569624 654.73003584 C-12.92875473 657.27291678 -10.0064681 659.36551732 -6.76637352 661.34725678 C-3.07487039 663.9043163 -0.45505161 667.36923658 2.36331177 670.82246399 C3.80172378 672.32101029 5.25680878 673.80400416 6.73831177 675.25996399 C7.49628052 676.01019836 8.25424927 676.76043274 9.03518677 677.53340149 C10.18760864 678.66648743 10.18760864 678.66648743 11.36331177 679.82246399 C16.35597109 684.73135386 21.22400783 689.65839491 25.75784302 694.99824524 C26.28764771 695.60023743 26.81745239 696.20222961 27.36331177 696.82246399 C27.90321369 697.5093845 28.44311562 698.19630501 28.9993782 698.90404129 C32.17479953 701.48101742 34.87548793 701.38483815 38.79171753 701.34144592 C39.54242531 701.34894717 40.29313309 701.35644843 41.06658959 701.36417699 C43.58342044 701.38448557 46.09935312 701.37634564 48.61624146 701.36836243 C50.41977328 701.37709575 52.22329736 701.38758068 54.02680969 701.39968872 C58.92523834 701.42759892 63.8234148 701.4309523 68.72191143 701.42996883 C73.84024928 701.43309362 78.95847282 701.45870277 84.07675171 701.48194885 C93.76996721 701.52254567 103.46311538 701.54285822 113.15640283 701.55592275 C124.19141264 701.57178032 135.22630766 701.6101907 146.26125097 701.65051603 C168.9618994 701.73296537 191.66254473 701.78702603 214.36331177 701.82246399 C214.64469151 701.21590595 214.92607126 700.60934792 215.21597767 699.98440933 C216.85015302 696.90509896 219.25002181 694.68267631 221.71170044 692.26289368 C222.25670197 691.71920639 222.80170349 691.1755191 223.36322021 690.61535645 C225.16468706 688.82037533 226.97302529 687.03247904 228.78128052 685.24433899 C230.0401163 683.9917788 231.29843486 682.7386986 232.55625916 681.48512268 C235.87184076 678.1828451 239.1929325 674.8861699 242.51565552 671.59107971 C247.81685012 666.33297004 253.11147489 661.06826864 258.40267372 655.80010223 C260.82449329 653.39161713 263.25209627 650.98898824 265.67918205 648.58581161 C267.31524387 646.95223881 268.92968885 645.29953178 270.54222107 643.64277649 C273.36331177 640.82246399 273.36331177 640.82246399 275.69746399 638.95137024 C279.21660137 635.90362278 280.46159966 633.23621242 280.97673035 628.66493225 C281.36046439 623.22889454 281.30797234 617.79987762 281.26565552 612.35371399 C281.27504646 610.34730921 281.28750786 608.34091665 281.30290222 606.33454895 C281.33506747 601.07360855 281.32570758 595.81354171 281.30752563 590.55256653 C281.29635088 585.17629004 281.32468749 579.80023521 281.34963989 574.42402649 C281.39273761 563.89001652 281.39194208 553.35650624 281.36331177 542.82246399 C292.29827648 542.79934101 303.23323543 542.78154914 314.16821957 542.77065182 C319.24522195 542.76542289 324.32220766 542.75832507 329.39920044 542.74702454 C334.29451729 542.736196 339.18981806 542.73018723 344.08514595 542.72758675 C345.95714127 542.72573243 347.82913567 542.72211171 349.70112419 542.71673393 C352.31371876 542.70952394 354.92624603 542.70847303 357.53884888 542.7089386 C358.32071564 542.70534332 359.1025824 542.70174805 359.90814209 542.69804382 C365.24925961 542.70841183 365.24925961 542.70841183 366.36331177 543.82246399 C366.49218124 545.50865869 366.55182665 547.20017965 366.58450317 548.89097595 C366.60755524 549.98975571 366.6306073 551.08853546 366.65435791 552.22061157 C366.67432831 553.43709885 366.69429871 554.65358612 366.71487427 555.90693665 C366.73911469 557.18021317 366.7633551 558.45348969 366.78833008 559.76535034 C367.00569407 571.55934417 367.12635002 583.35501774 367.22262573 595.15055275 C367.28875137 603.07568926 367.38292684 610.99836011 367.54983521 618.92207336 C367.69551338 625.83825617 367.78719399 632.75272703 367.81530952 639.67042387 C367.83189026 643.32761331 367.87365708 646.98024359 367.97982788 650.63602066 C368.68028304 675.78493551 368.68028304 675.78493551 361.07485962 684.04514122 C358.52217237 686.41107199 355.87910483 688.54066657 353.04891968 690.56435776 C350.91420429 692.15766941 349.26987766 693.99515014 347.61331177 696.07246399 C344.42653833 699.85059745 340.92628503 703.28724217 337.41140747 706.75483704 C334.16264832 709.97677004 331.13857198 713.3162236 328.17190552 716.79512024 C325.18803173 720.13989453 321.95711444 723.23581556 318.76956177 726.38496399 C316.70881832 728.47247034 314.76815551 730.59415622 312.86331177 732.82246399 C310.16720036 735.97640564 307.31514202 738.90619796 304.36331177 741.82246399 C301.43212985 744.71838356 298.59928002 747.6248897 295.92581177 750.75996399 C292.61985059 754.62864197 289.03186499 758.18310704 285.41262817 761.75361633 C282.16347004 764.97596808 279.13894842 768.31578215 276.17190552 771.79512024 C273.19836212 775.12831468 269.97997739 778.21425872 266.80081177 781.34980774 C263.9651512 784.22636725 261.32992619 787.23013858 258.73831177 790.32637024 C257.03428159 792.18047126 255.94906448 792.77991325 253.43183637 792.96277183 C252.63517772 792.96998113 251.83851908 792.97719043 251.01771927 792.98461819 C250.09927113 792.99524302 249.18082299 793.00586785 248.23454309 793.01681465 C247.21881715 793.02345148 246.20309121 793.03008832 245.15658569 793.03692627 C244.08261339 793.04765862 243.00864109 793.05839096 241.90212417 793.06944853 C238.27886183 793.10406289 234.65558413 793.13122413 231.03225708 793.15815735 C228.44387098 793.1807798 225.85548701 793.20364832 223.2671051 793.22674561 C199.60168317 793.4315464 175.9353979 793.54114002 152.26929092 793.62996578 C149.09994673 793.64207341 145.9306035 793.65440703 142.76126099 793.66694641 C141.97355142 793.67005326 141.18584186 793.6731601 140.3742623 793.67636109 C127.63459475 793.7281131 114.89588839 793.83224617 102.15674677 793.95673864 C89.06884553 794.08357308 75.98144264 794.15692408 62.89294314 794.18037325 C55.54759602 794.19499127 48.20404976 794.23347104 40.85932159 794.33325005 C33.94097059 794.42722821 27.02554735 794.44951579 20.10661507 794.42426491 C17.57418745 794.42651137 15.04164585 794.45256 12.50975609 794.50479889 C-8.59242093 794.91786938 -8.59242093 794.91786938 -16.20751214 787.90934616 C-18.91877415 785.03496936 -21.29863006 782.00181081 -23.63668823 778.82246399 C-24.87358117 777.39433924 -26.11920865 775.97351357 -27.38668823 774.57246399 C-28.15239136 773.66754211 -28.15239136 773.66754211 -28.93356323 772.74433899 C-31.87412005 769.42609598 -35.08152687 766.37094672 -38.23434448 763.25605774 C-40.27383196 761.19004034 -42.19176623 759.0924085 -44.07418823 756.88496399 C-46.93841159 753.53321326 -50.0000254 750.41689643 -53.13668823 747.32246399 C-56.87699161 743.63251811 -60.41908173 739.84742701 -63.82809448 735.84980774 C-66.81196827 732.50503345 -70.04288556 729.40911242 -73.23043823 726.25996399 C-75.88628577 723.56962493 -78.33804255 720.75672874 -80.79293823 717.88496399 C-82.98465136 715.4332171 -85.29735927 713.13360826 -87.63668823 710.82246399 C-90.56787015 707.92654441 -93.40071998 705.02003828 -96.07418823 701.88496399 C-98.93841004 698.53321507 -101.99999524 695.41686924 -105.13668823 692.32246399 C-109.0306677 688.47133437 -112.74960137 684.55275441 -116.29684448 680.38105774 C-117.35732959 679.1474322 -118.48637075 677.97278148 -119.63668823 676.82246399 C-119.83888609 673.80277895 -119.91336929 670.87426953 -119.90233707 667.85298729 C-119.90674194 666.90758711 -119.9111468 665.96218693 -119.91568515 664.98813826 C-119.92810822 661.78405155 -119.92612451 658.58013044 -119.92430115 655.37602234 C-119.93017969 653.07010728 -119.93691747 650.76419428 -119.94444603 648.45828402 C-119.96259112 642.09336007 -119.96804833 635.72847751 -119.97143281 629.36353087 C-119.97562212 623.21288311 -119.99104601 617.06225806 -120.00505515 610.91162649 C-120.04199574 594.4260217 -120.05833786 577.94041516 -120.07193351 561.45477745 C-120.07847192 553.65834915 -120.08729673 545.86192392 -120.09631342 538.06549816 C-120.12704316 511.38630355 -120.15275838 484.70710947 -120.16363621 458.02789879 C-120.1643326 456.35236388 -120.16503027 454.67682897 -120.16572922 453.00129405 C-120.16607475 452.170364 -120.16642028 451.33943394 -120.16677628 450.48332418 C-120.16852975 446.27329135 -120.17030108 442.06325853 -120.17208862 437.85322571 C-120.17243816 437.01772564 -120.1727877 436.18222558 -120.17314784 435.32140733 C-120.18467231 408.22961291 -120.22402417 381.13795746 -120.27983493 354.04622049 C-120.33870974 325.41490285 -120.37215867 296.78366571 -120.37664837 268.15228617 C-120.37723738 265.01003366 -120.37793237 261.86778119 -120.37870598 258.72552872 C-120.37888494 257.95179683 -120.3790639 257.17806495 -120.37924828 256.38088664 C-120.38273325 243.9208842 -120.4094315 231.46103455 -120.44443488 219.00108538 C-120.47903288 206.47946152 -120.48778509 193.95802665 -120.47022427 181.43636553 C-120.46139511 174.6505195 -120.46471713 167.86520809 -120.49804306 161.079422 C-120.52826913 154.87000538 -120.52634153 148.66146895 -120.49855506 142.45204861 C-120.4941986 140.20298073 -120.50173939 137.95385262 -120.52222807 135.70487384 C-120.54831362 132.65116959 -120.53137713 129.60060832 -120.50360966 126.54698753 C-120.52142706 125.67014189 -120.53924446 124.79329625 -120.55760178 123.88987952 C-120.43723171 117.8120611 -118.63123804 114.81475265 -114.39380818 110.49303738 C-113.8139586 109.94174816 -113.23410902 109.39045894 -112.63668823 108.82246399 C-111.77043823 107.93558899 -110.90418823 107.04871399 -110.01168823 106.13496399 C-109.22793823 105.37183899 -108.44418823 104.60871399 -107.63668823 103.82246399 C-104.70550632 100.92654441 -101.87265649 98.02003828 -99.19918823 94.88496399 C-95.89322705 91.01628601 -92.30524146 87.46182094 -88.68600464 83.89131165 C-85.4368465 80.6689599 -82.41232489 77.32914582 -79.44528198 73.84980774 C-76.46140819 70.50503345 -73.23049091 67.40911242 -70.04293823 64.25996399 C-67.98219478 62.17245764 -66.04153197 60.05077176 -64.13668823 57.82246399 C-61.44057682 54.66852234 -58.58851848 51.73873002 -55.63668823 48.82246399 C-52.70550632 45.92654441 -49.87265649 43.02003828 -47.19918823 39.88496399 C-43.89322705 36.01628601 -40.30524146 32.46182094 -36.68600464 28.89131165 C-33.43945657 25.67154844 -30.41656085 22.33523017 -27.45309448 18.85762024 C-24.4778906 15.52411223 -21.26536034 12.43187292 -18.06637573 9.31465149 C-15.5205908 6.87118062 -15.5205908 6.87118062 -13.64962578 3.71810627 C-9.983876 -0.65889017 -5.34568992 -0.03819284 0 0 Z " fill="#FDFEFD" transform="translate(1563.6366882324219,605.1775360107422)"/>
<path d="M0 0 C1.08555711 -0.0158589 2.17111422 -0.03171779 3.28956699 -0.04805726 C6.92860018 -0.09238294 10.5658048 -0.08663667 14.20507812 -0.08085632 C16.81378032 -0.10180131 19.42246079 -0.12561993 22.03111267 -0.15209961 C28.38380362 -0.21019494 34.73603991 -0.22948131 41.0889743 -0.23338626 C46.25706452 -0.23671634 51.42500519 -0.25111912 56.5930481 -0.27329063 C71.2618759 -0.33493544 85.93034559 -0.36722839 100.59930384 -0.36197732 C101.78498975 -0.36155778 101.78498975 -0.36155778 102.99462891 -0.36112976 C104.18177209 -0.36070051 104.18177209 -0.36070051 105.39289796 -0.3602626 C118.2035676 -0.35742075 131.0127936 -0.42431789 143.82304597 -0.52309833 C156.99257059 -0.62384284 170.16139273 -0.67197849 183.33131218 -0.66594189 C190.71889056 -0.66362396 198.10495753 -0.68258306 205.4921875 -0.75818825 C212.44694635 -0.82891274 219.39847622 -0.8263827 226.35339546 -0.77557182 C228.89863312 -0.76827425 231.44407171 -0.78465581 233.98896599 -0.82709503 C255.19443708 -1.15766946 255.19443708 -1.15766946 262.81520939 5.85554773 C265.52422547 8.72768331 267.9011861 11.75846642 270.23632812 14.93598938 C271.47317224 16.36415642 272.71879147 17.78499143 273.98632812 19.18598938 C274.49679687 19.78927063 275.00726562 20.39255188 275.53320312 21.01411438 C278.47375994 24.33235739 281.68116676 27.38750665 284.83398438 30.50239563 C286.87347186 32.56841303 288.79140612 34.66604487 290.67382812 36.87348938 C293.53805148 40.22524011 296.59966529 43.34155694 299.73632812 46.43598938 C303.47663151 50.12593526 307.01872162 53.91102636 310.42773438 57.90864563 C313.41160816 61.25341992 316.64252545 64.34934095 319.83007812 67.49848938 C322.48592566 70.18882844 324.93768245 73.00172462 327.39257812 75.87348938 C329.58429125 78.32523627 331.89699917 80.62484511 334.23632812 82.93598938 C337.16751004 85.83190895 340.00035987 88.73841509 342.67382812 91.87348938 C345.53804993 95.2252383 348.59963514 98.34158413 351.73632812 101.43598938 C355.63030759 105.287119 359.34924126 109.20569896 362.89648438 113.37739563 C363.95696949 114.61102117 365.08601064 115.78567189 366.23632812 116.93598938 C366.48242378 119.25919533 366.48242378 119.25919533 366.47683716 122.22569275 C366.48096115 123.90844048 366.48096115 123.90844048 366.48516846 125.62518311 C366.47797791 126.86164078 366.47078735 128.09809845 366.46337891 129.37202454 C366.46367096 130.66954147 366.46396301 131.96705841 366.46426392 133.30389404 C366.46483913 136.86776657 366.45305769 140.43150521 366.439116 143.99534655 C366.42663663 147.71760923 366.42544035 151.43987478 366.42306519 155.16215515 C366.41684218 162.21343732 366.4004203 169.26465768 366.38036621 176.3159126 C366.35385892 185.84241937 366.34304119 195.36894297 366.33136177 204.89547729 C366.31254025 219.90902765 366.2727001 234.92244754 366.23632812 249.93598938 C338.18632813 249.93598938 310.13632813 249.93598938 281.23632812 249.93598938 C281.39617187 243.67114563 281.55601562 237.40630188 281.72070312 230.95161438 C281.77741289 226.9406597 281.82806496 222.93138665 281.85742188 218.92036438 C281.90441489 212.5764624 281.971616 206.23807015 282.17236328 199.89692688 C284.10462152 173.16243085 284.10462152 173.16243085 273.30010986 150.01747131 C269.91588913 146.95928224 266.40962531 144.2653357 262.6385498 141.70344543 C259.53207483 139.41782873 257.22943664 136.76846848 254.78485107 133.80714417 C252.53332452 131.0865163 250.0620644 128.66767876 247.54882812 126.18598938 C247.04262939 125.68357727 246.53643066 125.18116516 246.01489258 124.66352844 C244.42450962 123.08516226 242.83088368 121.51013929 241.23632812 119.93598938 C229.52446425 108.3740031 229.52446425 108.3740031 225.42382812 103.62348938 C224.66252657 102.76066754 224.66252657 102.76066754 223.88584518 101.88041496 C222.23632812 99.93598938 222.23632812 99.93598938 220.98833084 98.09655952 C218.29674972 94.62421214 216.13823678 93.13403362 211.80226898 92.18192673 C207.32241051 91.67585236 202.8287692 91.57426209 198.32519531 91.4589386 C196.59090563 91.39044612 194.85670823 91.31958226 193.12260437 91.24653625 C187.4273045 91.02205719 181.73126197 90.87462398 176.03320312 90.74067688 C175.05680532 90.71694708 174.08040751 90.69321729 173.07442188 90.66876841 C163.81984813 90.44720653 154.56506397 90.25595365 145.30862045 90.13314629 C134.62443491 89.98956634 123.95754284 89.76513083 113.28173828 89.30757141 C60.32018933 84.8859095 60.32018933 84.8859095 13.81944656 105.25513649 C4.89107982 113.63138529 -2.41498087 123.3854682 -9.12422943 133.58488846 C-11.71169966 137.29554245 -14.67058151 140.64134335 -17.76367188 143.93598938 C-18.28471874 144.50436586 -18.80576561 145.07274235 -19.34260178 145.65834236 C-20.76367188 146.93598938 -20.76367188 146.93598938 -22.76367188 146.93598938 C-22.94225348 194.28316603 -23.10157288 241.63036257 -23.15515137 288.9778595 C-23.15595054 289.67910962 -23.15674972 290.38035974 -23.15757311 291.10285986 C-23.17482415 306.34453634 -23.18851309 321.58621408 -23.19853488 336.82789698 C-23.20347154 344.30289316 -23.20919499 351.77788863 -23.21533203 359.25288391 C-23.21592933 359.99671827 -23.21652664 360.74055263 -23.21714204 361.50692742 C-23.23685557 385.59772738 -23.30847744 409.68803158 -23.40714606 433.7786267 C-23.50830347 458.54404672 -23.55683707 483.30902964 -23.53957562 508.07466363 C-23.53715954 511.57615292 -23.53534227 515.07764227 -23.53388977 518.57913208 C-23.53358539 519.2682454 -23.53328101 519.95735872 -23.5329674 520.66735427 C-23.5296139 531.74076136 -23.58139501 542.81325062 -23.65402707 553.88639134 C-23.72594104 565.03072117 -23.7379292 576.17415306 -23.69352412 587.31869316 C-23.67121521 593.35301874 -23.67463784 599.38438971 -23.74833488 605.4183712 C-23.81533444 610.95123402 -23.80758125 616.47894005 -23.74212199 622.01177484 C-23.7314149 624.00536238 -23.74738037 625.99932404 -23.79375762 627.99240083 C-24.01377828 638.09199321 -23.43035505 645.12331631 -16.24473855 652.67651698 C-13.51987011 655.27248916 -10.68990483 657.71133935 -7.800569 660.12159199 C-5.01497341 662.60290404 -2.63240507 665.35320996 -0.23072103 668.20130923 C1.60788298 670.37532628 3.5812607 672.37842312 5.61132812 674.37348938 C6.36929688 675.12372375 7.12726563 675.87395813 7.90820312 676.64692688 C9.060625 677.78001282 9.060625 677.78001282 10.23632812 678.93598938 C15.19621837 683.81265999 20.03795344 688.70154656 24.53320312 694.01411438 C25.09523438 694.64833313 25.65726563 695.28255188 26.23632812 695.93598938 C26.94076396 696.7874438 27.64519979 697.63889822 28.37098217 698.51615429 C31.88256468 701.48174752 34.38989514 701.64248226 38.7849884 701.57522583 C39.53655061 701.58358151 40.28811282 701.59193718 41.06244963 701.60054606 C43.57636814 701.62246274 46.0888239 701.60887403 48.6027832 701.59541321 C50.40646473 701.6038665 52.21013712 701.61451064 54.01379395 701.62718201 C58.90809693 701.65535409 63.80196204 701.65285217 68.69632173 701.64488816 C73.81199262 701.64176557 78.92752344 701.66679021 84.0431366 701.68884277 C93.72926217 701.72631431 103.41524733 701.73843261 113.10143822 701.74146718 C124.12922348 701.74615463 135.15686779 701.7790679 146.18459094 701.81436503 C168.86848625 701.88633777 191.55232785 701.92282243 214.23632812 701.93598938 C214.51849088 701.32864834 214.80065363 700.7213073 215.09136677 700.09556198 C216.70477805 697.05242102 219.06053976 694.85843291 221.49291992 692.46821594 C222.02816788 691.93428223 222.56341583 691.40034851 223.11488342 690.85023499 C224.8838851 689.08771827 226.65975646 687.3322887 228.43554688 685.57661438 C229.67196249 684.34647457 230.90786078 683.11581458 232.14326477 681.88465881 C235.39966266 678.64156418 238.66156987 675.40407282 241.92510986 672.16816711 C247.13155289 667.00481035 252.33142732 661.83486275 257.52787209 656.66144562 C259.33498808 654.86445983 261.14553202 653.07098359 262.95646667 651.27784729 C268.60088762 645.67433588 274.10336787 640.01899491 279.23632812 633.93598938 C279.56632812 633.60598938 279.89632813 633.27598938 280.23632812 632.93598938 C280.36153783 630.13690231 280.42241535 627.36128609 280.44165039 624.56074524 C280.45154999 623.68277786 280.46144958 622.80481049 280.47164917 621.90023804 C280.5033624 618.98379763 280.52806023 616.0673409 280.55273438 613.15083313 C280.57329543 611.13443567 280.59429167 609.11804261 280.6157074 607.10165405 C280.67101572 601.78338672 280.72038622 596.46507993 280.76855469 591.14674377 C280.81870592 585.72424287 280.8744252 580.30179956 280.9296875 574.87934875 C281.03737615 564.23161145 281.13879718 553.58382423 281.23632812 542.93598938 C292.17129284 542.91286641 303.10625178 542.89507453 314.04123592 542.88417721 C319.1182383 542.87894828 324.19522401 542.87185046 329.2722168 542.86054993 C334.16753364 542.84972139 339.06283441 542.84371262 343.95816231 542.84111214 C345.83015763 542.83925783 347.70215203 542.8356371 349.57414055 542.83025932 C352.18673512 542.82304934 354.79926239 542.82199842 357.41186523 542.82246399 C358.19373199 542.81886871 358.97559875 542.81527344 359.78115845 542.81156921 C365.12227596 542.82193722 365.12227596 542.82193722 366.23632812 543.93598938 C366.36736959 545.61986871 366.42928346 547.30916365 366.46424866 548.99777222 C366.50099449 550.64377411 366.50099449 550.64377411 366.53848267 552.32302856 C366.56002411 553.53794479 366.58156555 554.75286102 366.60375977 556.0045929 C366.62960648 557.27626312 366.65545319 558.54793335 366.68208313 559.85813904 C366.91395122 571.64166009 367.04375219 583.4269969 367.14745426 595.21226597 C367.21869743 603.12970406 367.319814 611.04434643 367.49829102 618.9601593 C367.65407722 625.87013149 367.75209749 632.77815722 367.78241438 639.68986076 C367.80027879 643.34345427 367.84494799 646.99184157 367.9585743 650.64381599 C368.7071302 675.7456666 368.7071302 675.7456666 360.74195766 684.34017086 C358.04514389 686.84001347 355.22905259 689.08887007 352.27796745 691.27973747 C349.40143334 693.61328633 347.09807746 696.31830931 344.7308054 699.15508366 C342.70807716 701.56548385 340.48958478 703.74202896 338.23632812 705.93598938 C335.30514621 708.83190895 332.47229638 711.73841509 329.79882812 714.87348938 C326.49286694 718.74216736 322.90488135 722.29663243 319.28564453 725.86714172 C316.0364864 729.08949347 313.01196478 732.42930754 310.04492188 735.90864563 C307.06104809 739.25341992 303.8301308 742.34934095 300.64257812 745.49848938 C298.58183468 747.58599573 296.64117186 749.70768161 294.73632812 751.93598938 C292.04021671 755.08993103 289.18815837 758.01972335 286.23632812 760.93598938 C283.30514621 763.83190895 280.47229638 766.73841509 277.79882812 769.87348938 C274.91612127 773.24803248 271.83148038 776.3835937 268.67382812 779.49848938 C265.54015281 782.5934242 262.5025567 785.6845413 259.67382812 789.06098938 C257.23632812 791.93598938 257.23632812 791.93598938 255.23632812 792.93598938 C253.79059871 793.04101126 252.34021521 793.08502663 250.89073563 793.09814358 C249.97228749 793.10876841 249.05383934 793.11939324 248.10755944 793.13034004 C247.0918335 793.13697687 246.07610756 793.14361371 245.02960205 793.15045166 C243.95562975 793.16118401 242.88165744 793.17191635 241.77514052 793.18297392 C238.15187818 793.21758828 234.52860049 793.24474952 230.90527344 793.27168274 C228.31688733 793.2943052 225.72850337 793.31717371 223.14012146 793.340271 C199.47469953 793.54507179 175.80841426 793.65466541 152.14230728 793.74349117 C148.97296309 793.7555988 145.80361986 793.76793242 142.63427734 793.7804718 C141.84656778 793.78357865 141.05885821 793.78668549 140.24727866 793.78988648 C127.50761111 793.84163849 114.76890475 793.94577156 102.02976313 794.07026403 C88.94186189 794.19709847 75.854459 794.27044947 62.7659595 794.29389864 C55.42061237 794.30851666 48.07706612 794.34699643 40.73233795 794.44677544 C33.81398695 794.5407536 26.8985637 794.56304118 19.97963142 794.5377903 C17.44720381 794.54003676 14.91466221 794.56608539 12.38277245 794.61832428 C-8.71942208 795.03139511 -8.71942208 795.03139511 -16.33754754 788.0198198 C-19.04791809 785.14646492 -21.42811018 782.11556168 -23.76367188 778.93598938 C-24.97992754 777.52889181 -26.20470441 776.12889521 -27.45117188 774.74848938 C-27.96035156 774.14649719 -28.46953125 773.544505 -28.99414062 772.92427063 C-31.76229022 769.81392152 -34.75261128 766.92671953 -37.71533203 764.00386047 C-40.96417098 760.78184372 -43.98833638 757.44231806 -46.95507812 753.96333313 C-49.93895191 750.61855884 -53.1698692 747.52263781 -56.35742188 744.37348938 C-59.01326941 741.68315032 -61.4650262 738.87025413 -63.91992188 735.99848938 C-66.111635 733.54674249 -68.42434292 731.24713365 -70.76367188 728.93598938 C-73.69485379 726.0400698 -76.52770362 723.13356367 -79.20117188 719.99848938 C-82.06539523 716.64673865 -85.12700904 713.53042182 -88.26367188 710.43598938 C-92.00397526 706.7460435 -95.54606537 702.9609524 -98.95507812 698.96333313 C-101.92918251 695.62950985 -105.14882442 692.5433387 -108.32617188 689.40473938 C-111.14479727 686.54997776 -113.7869937 683.58170801 -116.38867188 680.52973938 C-117.46216873 679.28545893 -118.60164147 678.09801979 -119.76367188 676.93598938 C-119.97490236 673.91998151 -120.05859223 670.99430702 -120.05725384 667.97603512 C-120.06465467 667.03164293 -120.0720555 666.08725075 -120.07968059 665.11424062 C-120.10221995 661.91352407 -120.11034566 658.71292915 -120.11857605 655.512146 C-120.13160804 653.20851793 -120.14547205 650.90489445 -120.16010171 648.60127598 C-120.19774909 642.24235391 -120.22250576 635.88343608 -120.24500692 629.5244447 C-120.25995415 625.45946012 -120.27977579 621.39450849 -120.30087471 617.3295517 C-120.30441194 616.6473771 -120.30794917 615.96520251 -120.31159359 615.26235595 C-120.31881948 613.87113523 -120.32604981 612.47991452 -120.3332845 611.08869384 C-120.43017555 592.26573679 -120.49635085 573.44268802 -120.55664062 554.61958313 C-120.55911963 553.84873458 -120.56159863 553.07788603 -120.56415275 552.28367843 C-120.66206522 521.76460604 -120.74607313 491.24549032 -120.80397166 460.72631467 C-120.8183478 453.16217219 -120.83326861 445.59803079 -120.84838867 438.03388977 C-120.8500458 437.1980717 -120.85170293 436.36225362 -120.85341028 435.50110773 C-120.90751673 408.42343443 -121.02193724 381.3464509 -121.16979078 354.26913952 C-121.3215274 326.42991099 -121.41776008 298.59105394 -121.44241072 270.75140787 C-121.4459085 266.81598175 -121.45000931 262.88055646 -121.45446205 258.9451313 C-121.45531524 258.17062307 -121.45616843 257.39611485 -121.45704748 256.59813667 C-121.47232459 244.15068538 -121.54530712 231.70421601 -121.63973886 219.25714173 C-121.73343256 206.73292523 -121.7643708 194.20976936 -121.73222169 181.68523353 C-121.71650232 174.90333549 -121.729901 168.12462322 -121.81708145 161.34317207 C-121.89636964 155.12637648 -121.89623269 148.91468017 -121.83452765 142.69773186 C-121.8259948 140.45650505 -121.84588915 138.21493885 -121.89804354 135.9743027 C-122.13934918 124.94128113 -121.73882878 116.96131469 -113.88024728 108.67206666 C-110.9845702 105.9188997 -107.97596894 103.34200602 -104.89164702 100.80349732 C-102.06033498 98.31874192 -99.65934468 95.56476486 -97.24158205 92.68329343 C-95.21821268 90.29110374 -93.00732341 88.12059746 -90.76367188 85.93598938 C-87.81184163 83.01972335 -84.95978329 80.08993103 -82.26367188 76.93598938 C-79.56756046 73.78204773 -76.71550212 70.85225541 -73.76367188 67.93598938 C-70.83248996 65.0400698 -67.99964013 62.13356367 -65.32617188 58.99848938 C-62.02021069 55.1298114 -58.4322251 51.57534633 -54.81298828 48.00483704 C-51.56383015 44.78248529 -48.53930853 41.44267121 -45.57226562 37.96333313 C-42.58839184 34.61855884 -39.35747455 31.52263781 -36.16992188 28.37348938 C-33.51534816 25.68444068 -31.06456221 22.87320148 -28.61132812 20.00239563 C-25.65371623 16.6946225 -22.46851629 13.62093508 -19.29101562 10.52583313 C-16.85499334 8.18408817 -16.85499334 8.18408817 -15.5827713 6.18473083 C-11.26389845 0.05206289 -7.17333277 -0.0768493 0 0 Z " fill="#FEFEFE" transform="translate(930.763671875,605.0640106201172)"/>
</svg>
